<svg xmlns="http://www.w3.org/2000/svg" viewBox="0 0 256 256">
  <defs>
    <linearGradient id="bg" x1="0" x2="1" y1="0" y2="1"><stop offset="0" stop-color="#0b141a"/><stop offset="1" stop-color="#17242d"/></linearGradient>
    <linearGradient id="gl" x1="0" x2="1"><stop offset="0" stop-color="#f2c94c" stop-opacity=".95"/><stop offset="1" stop-color="#ffffff" stop-opacity=".95"/></linearGradient>
  </defs>
  <rect width="256" height="256" rx="34" fill="url(#bg)"/>
  <circle cx="128" cy="70" r="34" fill="none" stroke="#f2c94c" stroke-opacity=".35" stroke-width="10"/>
  <path d="M92 42h72v18c0 27-14 50-36 66-22-16-36-39-36-66V42zm-18 14h18v17c0 10-8 19-18 19-10 0-18-9-18-19 0-10 8-17 18-17zm108 0h18c10 0 18 7 18 17 0 10-8 19-18 19-10 0-18-9-18-19V56zM113 128h30v24h26v18H87v-18h26v-24z" fill="url(#gl)"/>
  <text x="128" y="202" text-anchor="middle" fill="#edf3f6" font-family="Arial, Helvetica, sans-serif" font-size="14" font-weight="700">CAF Champions League</text>
  <text x="128" y="224" text-anchor="middle" fill="#f2c94c" font-family="Arial, Helvetica, sans-serif" font-size="16" font-weight="700">CCL</text>
</svg>