<svg xmlns="http://www.w3.org/2000/svg" viewBox="0 0 256 256">
<defs><linearGradient id="bg" x1="0" x2="1" y1="0" y2="1"><stop offset="0" stop-color="#071016"/><stop offset="1" stop-color="#13232c"/></linearGradient><linearGradient id="m" x1="0" x2="1"><stop offset="0" stop-color="#d4af37"/><stop offset="1" stop-color="#fff2b3"/></linearGradient></defs>
<rect x="5" y="5" width="246" height="246" rx="30" fill="url(#bg)" stroke="#d4af37" stroke-opacity=".38" stroke-width="4"/>
<path d="M66 147c16-20 29-31 39-62l18 9c9 22 31 36 64 42 18 3 19 27 2 35-33 15-82 12-119 3-17-4-20-17-4-27z" fill="url(#m)"/><path d="M91 146c31 8 68 10 98 2M107 113l18 8M116 101l18 8" fill="none" stroke="#8d6f1d" stroke-width="5"/>
<rect x="42" y="216" width="172" height="24" rx="12" fill="#071016" stroke="#d4af37" stroke-opacity=".45"/>
<text x="128" y="232" text-anchor="middle" fill="#edf5f7" font-size="11" font-family="Arial,Helvetica,sans-serif" font-weight="700">CHUTEIRA OURO</text>
</svg>